<?xml version="1.0" standalone="no"?>
<!DOCTYPE svg PUBLIC "-//W3C//DTD SVG 20010904//EN"
 "http://www.w3.org/TR/2001/REC-SVG-20010904/DTD/svg10.dtd">
<svg version="1.0" xmlns="http://www.w3.org/2000/svg"
 width="223.000000pt" height="223.000000pt" viewBox="0 0 223.000000 223.000000"
 preserveAspectRatio="xMidYMid meet">
<metadata>
Created by potrace 1.14, written by Peter Selinger 2001-2017
</metadata>
<g transform="translate(0.000000,223.000000) scale(0.100000,-0.100000)"
fill="#000000" stroke="none">
<path d="M0 1115 l0 -1115 555 0 555 0 0 1115 0 1115 -555 0 -555 0 0 -1115z
m376 373 c23 -26 34 -48 35 -70 3 -77 -8 -111 -43 -139 -20 -15 -19 -16 6 -32
56 -37 75 -138 40 -212 -26 -56 -75 -75 -200 -75 l-101 0 0 286 0 286 114 -4
115 -3 34 -37z m404 24 c19 -9 45 -32 57 -51 45 -67 19 -192 -47 -226 -34 -17
-35 -12 44 -173 51 -103 51 -102 33 -102 -7 0 -39 55 -72 123 -33 67 -61 124
-63 126 -1 3 -36 5 -77 5 l-75 1 0 -127 c0 -107 -2 -128 -15 -128 -13 0 -15
38 -15 285 l0 285 98 0 c72 0 106 -4 132 -18z"/>
<path d="M142 1388 l3 -113 65 -3 c114 -6 167 24 171 93 3 60 -2 77 -30 106
-28 28 -33 29 -121 29 l-91 0 3 -112z"/>
<path d="M144 1241 c-2 -2 -4 -60 -4 -128 l0 -123 94 0 c87 0 97 2 125 26 41
34 57 92 39 147 -21 64 -49 79 -158 80 -50 1 -94 0 -96 -2z"/>
<path d="M580 1370 l0 -130 80 0 c93 0 132 15 155 60 34 65 6 169 -51 190 -14
6 -61 10 -105 10 l-79 0 0 -130z"/>
<path d="M1310 1245 c0 -247 2 -285 15 -285 13 0 15 21 15 125 l0 125 73 0 72
0 63 -125 c48 -98 66 -125 82 -125 18 0 13 14 -44 128 l-64 128 29 16 c45 27
69 74 69 141 0 69 -19 111 -63 137 -26 17 -51 20 -139 20 l-108 0 0 -285z
m233 232 c56 -36 60 -146 7 -199 -27 -27 -33 -28 -119 -28 l-91 0 0 126 0 126
89 -4 c60 -3 97 -9 114 -21z"/>
<path d="M1760 1245 c0 -247 2 -285 15 -285 13 0 15 22 15 135 l0 135 165 0
165 0 0 -135 c0 -113 2 -135 15 -135 13 0 15 38 15 285 0 247 -2 285 -15 285
-13 0 -15 -22 -15 -135 l0 -135 -162 2 -163 3 -3 133 c-2 108 -5 132 -17 132
-13 0 -15 -41 -15 -285z"/>
</g>
</svg>
